<?xml version="1.0" encoding="utf-8"?>
<!-- Generator: Adobe Illustrator 18.1.0, SVG Export Plug-In . SVG Version: 6.00 Build 0)  -->
<svg version="1.1" id="Layer_1" xmlns="http://www.w3.org/2000/svg" xmlns:xlink="http://www.w3.org/1999/xlink" x="0px" y="0px"
	 viewBox="0 0 48 48" enable-background="new 0 0 48 48" xml:space="preserve">
<g id="Layer_1_1_">
</g>
<g>
	<path d="M40,0H8C3.6,0,0,3.6,0,8v32c0,4.4,3.6,8,8,8h18.1v-0.1v-0.5v-18h-6.3v-7.2h6.3v-5.3c0-6.2,3.8-9.5,9.4-9.5
		c2.7,0,4.9,0.2,5.6,0.3V14H41h-3.9c-3,0-3.6,1.4-3.6,3.5v4.6h7.2l-0.9,7.2h-6.2v18.2v0.5V48H40c4.4,0,8-3.6,8-8V8
		C48,3.6,44.4,0,40,0z"/>
</g>
</svg>
