<?xml version="1.0" encoding="utf-8"?>
<!-- Generator: Adobe Illustrator 18.1.0, SVG Export Plug-In . SVG Version: 6.00 Build 0)  -->
<svg version="1.1" id="Layer_1" xmlns="http://www.w3.org/2000/svg" xmlns:xlink="http://www.w3.org/1999/xlink" x="0px" y="0px"
	 viewBox="0 0 48 48" enable-background="new 0 0 48 48" xml:space="preserve">
<g id="googleplus-char">
	<path id="path-1_4_" d="M41.6,24.6V31h-3.4v-6.3h-6.4v-3.4h6.4V15h3.4v6.2H48v3.4L41.6,24.6L41.6,24.6z M24.3,2.8c3,2.5,4,4.8,4,8
		c0,2.1-0.6,3.9-1.7,5.4c-0.7,1-2,2.2-3.7,3.5c-1.2,1.2-1.8,2.2-1.8,3.1c0,1,0.6,1.9,1.7,2.7l2.3,1.8c1.8,1.3,3,2.5,3.8,3.6
		c1.1,1.5,1.6,3.3,1.6,5.2c0,3.2-1.4,5.9-4.3,8.2c-3.1,2.5-7.3,3.7-12.5,3.7c-4.4,0-7.8-0.9-10.3-2.8C1.1,43.6,0,41.5,0,39
		c0-3.2,1.6-5.8,4.9-7.7c2.6-1.6,6.7-2.5,12.2-2.9c-1.3-1.6-1.9-3-1.9-4.2c0-0.6,0.2-1.4,0.6-2.4c-0.9,0-1.6,0-2,0
		c-3.2,0-5.8-1-7.8-3.1c-1.8-1.9-2.7-4.2-2.7-6.8c0-3.4,1.4-6.2,4.1-8.5C10,1.1,13.8,0,18.7,0h13.7l-4.1,2.8H24.3z M11.1,31.2
		c-3.7,1.3-5.5,3.4-5.5,6.5c0,2.3,1,4.1,3.1,5.5c2.1,1.4,4.8,2.1,8.1,2.1c3,0,5.3-0.7,7-2c1.6-1.2,2.4-2.8,2.4-4.8
		c0-1.5-0.6-2.9-1.7-4.1c-0.8-0.9-2.6-2.3-5.3-4.2c-0.3,0-0.8-0.1-1.5-0.1C15.3,30.2,13.1,30.5,11.1,31.2z M20.7,6.2
		c-1.6-2.7-3.6-4.1-6-4.1c-2.2,0-3.8,0.9-4.9,2.8c-0.6,1-1,2.4-1,4c0,2.6,0.6,5,1.9,7.2c1.5,2.7,3.5,4,6.1,4c1.7,0,3.1-0.6,4.3-1.8
		c1.1-1.1,1.6-2.6,1.6-4.6C22.7,11,22,8.5,20.7,6.2z"/>
</g>
<g id="Layer_1_1_">
</g>
</svg>
