<?xml version="1.0" encoding="utf-8"?>
<!-- Generator: Adobe Illustrator 18.1.0, SVG Export Plug-In . SVG Version: 6.00 Build 0)  -->
<svg version="1.1" id="Layer_1" xmlns="http://www.w3.org/2000/svg" xmlns:xlink="http://www.w3.org/1999/xlink" x="0px" y="0px"
	 viewBox="0 0 48 48" enable-background="new 0 0 48 48" xml:space="preserve">
<g id="googleplus-box">
	<g>
		<path d="M40,0H8C3.6,0,0,3.6,0,8v32c0,4.4,3.6,8,8,8h32c4.4,0,8-3.6,8-8V8C48,3.6,44.4,0,40,0z M26.5,38.6
			c-2.2,1.7-5.1,2.6-8.7,2.6c-3,0-5.4-0.7-7.2-2c-1.6-1.1-2.3-2.6-2.3-4.4c0-2.2,1.1-4,3.4-5.4c1.8-1.1,4.6-1.7,8.4-2
			c-0.9-1.1-1.3-2.1-1.3-2.9c0-0.4,0.2-1,0.4-1.7c-0.6,0-1.1,0-1.4,0c-2.2,0-4-0.7-5.4-2.2c-1.3-1.3-1.9-2.9-1.9-4.8
			c0-2.3,1-4.3,2.9-5.9c1.9-1.6,4.5-2.4,7.9-2.4l9.5,0l-2.8,1.9l-2.7,0c2.1,1.7,2.7,3.3,2.7,5.6c0,1.4-0.4,2.7-1.2,3.8
			c-0.5,0.7-1.4,1.5-2.6,2.5c-0.8,0.8-1.2,1.5-1.2,2.2c0,0.7,0.4,1.3,1.1,1.9l1.6,1.2c1.2,0.9,2.1,1.8,2.6,2.5
			c0.7,1.1,1.1,2.3,1.1,3.7C29.5,35.2,28.5,37.1,26.5,38.6z M41.7,25l-4.4,0l0,4.4l-2.4,0l0-4.4l-4.4,0l0-2.4l4.4,0l0-4.4l2.4,0
			l0,4.4l4.4,0L41.7,25z"/>
		<path d="M21.7,28.8c-0.2,0-0.6,0-1,0c-1.7,0-3.3,0.2-4.6,0.7c-2.5,0.9-3.8,2.4-3.8,4.5c0,1.6,0.7,2.9,2.1,3.9
			c1.4,1,3.3,1.5,5.6,1.5c2.1,0,3.7-0.4,4.9-1.4c1.1-0.8,1.6-2,1.6-3.4c0-1.1-0.4-2-1.1-2.9C24.8,31.1,23.6,30.1,21.7,28.8z"/>
		<path d="M24.2,17.2c0-1.9-0.5-3.6-1.4-5.2c-1.1-1.9-2.5-2.9-4.1-2.9c-1.5,0-2.7,0.6-3.4,1.9c-0.4,0.7-0.7,1.7-0.7,2.8
			c0,1.8,0.4,3.5,1.3,5c1.1,1.9,2.5,2.8,4.2,2.8c1.2,0,2.2-0.4,3-1.2C23.8,19.7,24.2,18.7,24.2,17.2z"/>
	</g>
</g>
<g id="Layer_1_1_">
</g>
</svg>
