<?xml version="1.0" encoding="utf-8"?>
<!-- Generator: Adobe Illustrator 18.1.0, SVG Export Plug-In . SVG Version: 6.00 Build 0)  -->
<svg version="1.1" id="Layer_1" xmlns="http://www.w3.org/2000/svg" xmlns:xlink="http://www.w3.org/1999/xlink" x="0px" y="0px"
	 viewBox="0 0 48 48" enable-background="new 0 0 48 48" xml:space="preserve">
<g id="instagram">
	<path d="M42.5,0H5.5C2.5,0,0,2.5,0,5.5v36.9C0,45.5,2.5,48,5.5,48h36.9c3.1,0,5.5-2.5,5.5-5.5V5.5C48,2.5,45.5,0,42.5,0z M24,14.8
		c5.1,0,9.2,4.1,9.2,9.2s-4.1,9.2-9.2,9.2c-5.1,0-9.2-4.1-9.2-9.2C14.8,18.9,18.9,14.8,24,14.8z M42.5,40.6c0,1-0.8,1.8-1.8,1.8H7.4
		c-1,0-1.8-0.8-1.8-1.8V20.3h4.2c-0.3,1.2-0.5,2.4-0.5,3.7c0,8.2,6.6,14.8,14.8,14.8S38.8,32.2,38.8,24c0-1.3-0.2-2.5-0.5-3.7h4.2
		L42.5,40.6L42.5,40.6z M42.5,12.9c0,1-0.8,1.8-1.8,1.8h-5.5c-1,0-1.8-0.8-1.8-1.8V7.4c0-1,0.8-1.8,1.8-1.8h5.5c1,0,1.8,0.8,1.8,1.8
		V12.9z"/>
</g>
<g id="Layer_1_1_">
</g>
</svg>
