<?xml version="1.0" encoding="utf-8"?>
<!-- Generator: Adobe Illustrator 18.1.0, SVG Export Plug-In . SVG Version: 6.00 Build 0)  -->
<svg version="1.1" id="Layer_1" xmlns="http://www.w3.org/2000/svg" xmlns:xlink="http://www.w3.org/1999/xlink" x="0px" y="0px"
	 viewBox="0 0 48 48" enable-background="new 0 0 48 48" xml:space="preserve">
<g id="linkedin-box">
	<path d="M40,0H8C3.6,0,0,3.6,0,8v32c0,4.4,3.6,8,8,8h32c4.4,0,8-3.6,8-8V8C48,3.6,44.4,0,40,0z M14.8,40.9H7.7V18h7.1L14.8,40.9
		L14.8,40.9z M11.3,14.9c-2.3,0-4.1-1.9-4.1-4.1c0-2.3,1.9-4.1,4.1-4.1c2.3,0,4.1,1.9,4.1,4.1C15.4,13,13.6,14.9,11.3,14.9z
		 M41.6,40.9h-7.1V29.8c0-2.7-0.1-6.1-3.7-6.1c-3.7,0-4.3,2.9-4.3,5.9v11.3h-7.1V18h6.9v3.1h0.1c1-1.8,3.3-3.7,6.8-3.7
		c7.2,0,8.6,4.7,8.6,10.9V40.9z"/>
</g>
<g id="Layer_1_1_">
</g>
</svg>
