<?xml version="1.0" encoding="utf-8"?>
<!-- Generator: Adobe Illustrator 18.1.0, SVG Export Plug-In . SVG Version: 6.00 Build 0)  -->
<svg version="1.1" id="Layer_1" xmlns="http://www.w3.org/2000/svg" xmlns:xlink="http://www.w3.org/1999/xlink" x="0px" y="0px"
	 viewBox="0 0 48 48" enable-background="new 0 0 48 48" xml:space="preserve">
<g id="linkedin-char">
	<path id="path-1_5_" d="M38.1,48V32.4c0-3.7-0.1-8.5-5.2-8.5c-5.2,0-6,4.1-6,8.2V48H17V15.9h9.5v4.4h0.1c1.3-2.5,4.6-5.2,9.4-5.2
		c10.1,0,11.9,6.6,11.9,15.3V48H38.1z M5.8,11.6C2.6,11.6,0,9,0,5.8C0,2.6,2.6,0,5.8,0c3.2,0,5.8,2.6,5.8,5.8
		C11.5,9,8.9,11.6,5.8,11.6z M10.7,48h-10V15.9h10V48z"/>
</g>
<g id="Layer_1_1_">
</g>
</svg>
