<?xml version="1.0" encoding="utf-8"?>
<!-- Generator: Adobe Illustrator 18.1.0, SVG Export Plug-In . SVG Version: 6.00 Build 0)  -->
<svg version="1.1" id="Layer_1" xmlns="http://www.w3.org/2000/svg" xmlns:xlink="http://www.w3.org/1999/xlink" x="0px" y="0px"
	 viewBox="0 0 48 48" enable-background="new 0 0 48 48" xml:space="preserve">
<g>
	<path d="M24,0C10.7,0,0,10.7,0,24c0,9.8,5.9,18.3,14.4,22c-0.1-1.7,0-3.7,0.4-5.5c0.5-1.9,3.1-13.1,3.1-13.1s-0.8-1.5-0.8-3.8
		c0-3.6,2.1-6.2,4.6-6.2c2.2,0,3.2,1.6,3.2,3.6c0,2.2-1.4,5.5-2.1,8.5c-0.6,2.5,1.3,4.6,3.8,4.6c4.5,0,7.6-5.8,7.6-12.8
		c0-5.3-3.5-9.2-10-9.2c-7.3,0-11.8,5.4-11.8,11.5c0,2.1,0.6,3.6,1.6,4.7c0.4,0.5,0.5,0.7,0.3,1.3c-0.1,0.4-0.4,1.5-0.5,1.9
		c-0.2,0.6-0.7,0.8-1.2,0.6c-3.4-1.4-4.9-5-4.9-9.2c0-6.8,5.7-15,17.2-15c9.2,0,15.2,6.6,15.2,13.7c0,9.4-5.2,16.4-12.9,16.4
		c-2.6,0-5-1.4-5.9-3c0,0-1.4,5.5-1.7,6.6c-0.5,1.9-1.5,3.7-2.4,5.1c2.2,0.6,4.4,1,6.8,1c13.3,0,24-10.7,24-24C48,10.7,37.3,0,24,0z
		"/>
</g>
</svg>
