<?xml version="1.0" encoding="utf-8"?>
<!-- Generator: Adobe Illustrator 18.1.0, SVG Export Plug-In . SVG Version: 6.00 Build 0)  -->
<svg version="1.1" id="Layer_1" xmlns="http://www.w3.org/2000/svg" xmlns:xlink="http://www.w3.org/1999/xlink" x="0px" y="0px"
	 viewBox="0 0 48 48" enable-background="new 0 0 48 48" xml:space="preserve">
<g>
	<path d="M40,0H8C3.6,0,0,3.6,0,8v32c0,4.4,3.6,8,8,8h32c4.4,0,8-3.6,8-8V8C48,3.6,44.4,0,40,0z M24,41c-1.7,0-3.3-0.2-4.8-0.7
		c0.6-1,1.4-2.3,1.7-3.6c0.2-0.8,1.2-4.7,1.2-4.7c0.6,1.1,2.3,2.1,4.2,2.1c5.5,0,9.2-5,9.2-11.7c0-5-4.3-9.8-10.8-9.8
		c-8.1,0-12.2,5.8-12.2,10.6c0,2.9,1.1,5.5,3.5,6.5c0.4,0.2,0.7,0,0.9-0.4c0.1-0.3,0.3-1.1,0.3-1.4c0.1-0.4,0.1-0.6-0.2-0.9
		c-0.7-0.8-1.1-1.9-1.1-3.3c0-4.3,3.2-8.2,8.4-8.2c4.6,0,7.1,2.8,7.1,6.5c0,4.9-2.2,9-5.4,9c-1.8,0-3.1-1.5-2.7-3.3
		c0.5-2.2,1.5-4.5,1.5-6c0-1.4-0.7-2.6-2.3-2.6c-1.8,0-3.3,1.9-3.3,4.4c0,1.6,0.5,2.7,0.5,2.7s-1.9,7.9-2.2,9.3
		c-0.3,1.3-0.3,2.7-0.3,3.9C11.2,37,7,31,7,24c0-9.4,7.6-17,17-17c9.4,0,17,7.6,17,17C41,33.4,33.4,41,24,41z"/>
</g>
</svg>
