<?xml version="1.0" encoding="utf-8"?>
<!-- Generator: Adobe Illustrator 18.1.0, SVG Export Plug-In . SVG Version: 6.00 Build 0)  -->
<svg version="1.1" id="Layer_1" xmlns="http://www.w3.org/2000/svg" xmlns:xlink="http://www.w3.org/1999/xlink" x="0px" y="0px"
	 viewBox="0 0 48 48" enable-background="new 0 0 48 48" xml:space="preserve">
<g id="Layer_1_1_">
	<g>
		<g>
			<path d="M47.3,26.6C41.4,20.7,20.7,0,20.7,0S10.1,0,4.5,0C3,0,0.1,1.5,0.1,4.4c0,5.9,0,16.2,0,16.2s20.7,20.7,26.6,26.6
				c1.2,1.2,2.1,0.9,3,0c3.8-3.8,13.9-13.9,17.7-17.7C48.2,28.6,48.2,27.4,47.3,26.6z M11.9,16.2c-2.7,0-4.4-1.8-4.4-4.4
				c0-2.4,2.1-4.4,4.4-4.4s4.4,2.1,4.4,4.4C16.3,14.5,14.2,16.2,11.9,16.2z"/>
		</g>
	</g>
</g>
<g id="nyt_x5F_png_x5F_info" display="none">
</g>
<g id="nyt_x5F_exporter_x5F_info" display="none">
</g>
</svg>
