<?xml version="1.0" encoding="utf-8"?>
<!-- Generator: Adobe Illustrator 18.1.0, SVG Export Plug-In . SVG Version: 6.00 Build 0)  -->
<svg version="1.1" id="Layer_1" xmlns="http://www.w3.org/2000/svg" xmlns:xlink="http://www.w3.org/1999/xlink" x="0px" y="0px"
	 viewBox="0 0 48 48" enable-background="new 0 0 48 48" xml:space="preserve">
<g id="twitter-bird">
	<path id="path-1_2_" d="M48,9.2c-1.8,0.8-3.7,1.3-5.7,1.5c2-1.2,3.6-3.1,4.3-5.4c-1.9,1.1-4,1.9-6.3,2.4c-1.8-1.9-4.4-3.1-7.2-3.1
		c-5.4,0-9.8,4.4-9.8,9.8c0,0.8,0.1,1.5,0.3,2.2C15.5,16.2,8.2,12.3,3.3,6.4C2.5,7.8,2,9.5,2,11.3c0,3.4,1.7,6.4,4.4,8.2
		c-1.6-0.1-3.1-0.5-4.5-1.2c0,0,0,0.1,0,0.1c0,4.8,3.4,8.7,7.9,9.6c-0.8,0.2-1.7,0.3-2.6,0.3c-0.6,0-1.3-0.1-1.9-0.2
		c1.3,3.9,4.9,6.7,9.2,6.8c-3.4,2.6-7.6,4.2-12.2,4.2c-0.8,0-1.6,0-2.3-0.1c4.4,2.8,9.5,4.4,15.1,4.4c18.1,0,28-15,28-27.9
		c0-0.4,0-0.8,0-1.3C45,12.9,46.7,11.1,48,9.2z"/>
</g>
<g id="Layer_1_1_">
</g>
</svg>
