<?xml version="1.0" encoding="utf-8"?>
<!-- Generator: Adobe Illustrator 18.1.0, SVG Export Plug-In . SVG Version: 6.00 Build 0)  -->
<svg version="1.1" id="Layer_1" xmlns="http://www.w3.org/2000/svg" xmlns:xlink="http://www.w3.org/1999/xlink" x="0px" y="0px"
	 viewBox="0 0 48 48" enable-background="new 0 0 48 48" xml:space="preserve">
<g id="twitter-box">
	<path d="M40,0H8C3.6,0,0,3.6,0,8v32c0,4.4,3.6,8,8,8h32c4.4,0,8-3.6,8-8V8C48,3.6,44.4,0,40,0z M38.2,16.9c0,0.3,0,0.6,0,0.9
		c0,9.5-7.3,20.5-20.6,20.5c-4.1,0-7.9-1.2-11.1-3.2c0.6,0.1,1.1,0.1,1.7,0.1c3.4,0,6.5-1.2,9-3.1c-3.2-0.1-5.8-2.1-6.8-5
		c0.4,0.1,0.9,0.1,1.4,0.1c0.7,0,1.3-0.1,1.9-0.3c-3.3-0.7-5.8-3.6-5.8-7.1c0,0,0-0.1,0-0.1c1,0.5,2.1,0.9,3.3,0.9
		c-1.9-1.3-3.2-3.5-3.2-6c0-1.3,0.4-2.6,1-3.6c3.6,4.4,8.9,7.2,14.9,7.5c-0.1-0.5-0.2-1.1-0.2-1.6c0-4,3.2-7.2,7.2-7.2
		c2.1,0,4,0.9,5.3,2.3c1.6-0.3,3.2-0.9,4.6-1.7c-0.5,1.7-1.7,3.1-3.2,4c1.5-0.2,2.9-0.6,4.2-1.1C40.8,14.6,39.6,15.9,38.2,16.9z"/>
</g>
<g id="Layer_1_1_">
</g>
</svg>
