<?xml version="1.0" encoding="utf-8"?>
<!-- Generator: Adobe Illustrator 18.1.0, SVG Export Plug-In . SVG Version: 6.00 Build 0)  -->
<svg version="1.1" id="Layer_1" xmlns="http://www.w3.org/2000/svg" xmlns:xlink="http://www.w3.org/1999/xlink" x="0px" y="0px"
	 viewBox="0 0 48 48" enable-background="new 0 0 48 48" xml:space="preserve">
<g id="Layer_1_1_">
</g>
<g>
	<path d="M40,0H8C3.6,0,0,3.6,0,8v32c0,4.4,3.6,8,8,8h32c4.4,0,8-3.6,8-8V8C48,3.6,44.4,0,40,0z M34.1,30.2c-4.6,6-8.6,9-11.8,9
		c-2,0-3.7-1.8-5-5.5c-0.9-3.4-1.8-6.7-2.8-10.1c-1-3.7-2.1-5.5-3.3-5.5c-0.3,0-1.1,0.5-2.7,1.6L7,17.7c1.7-1.5,3.3-3,5-4.4
		c2.2-1.9,3.9-3,5.1-3.1c2.7-0.3,4.3,1.6,4.9,5.4c0.7,4.2,1.1,6.8,1.4,7.8c0.8,3.5,1.6,5.2,2.5,5.2c0.7,0,1.8-1.1,3.2-3.4
		c1.4-2.3,2.2-4,2.3-5.1c0.2-1.9-0.6-2.9-2.3-2.9c-0.8,0-1.7,0.2-2.5,0.6c1.7-5.5,4.9-8.2,9.6-8c3.5,0.1,5.2,2.4,5,6.8
		C40.9,19.9,38.6,24.4,34.1,30.2z"/>
</g>
</svg>
