<?xml version="1.0" encoding="utf-8"?>
<!-- Generator: Adobe Illustrator 18.1.0, SVG Export Plug-In . SVG Version: 6.00 Build 0)  -->
<svg version="1.1" id="Layer_1" xmlns="http://www.w3.org/2000/svg" xmlns:xlink="http://www.w3.org/1999/xlink" x="0px" y="0px"
	 viewBox="0 0 48 48" enable-background="new 0 0 48 48" xml:space="preserve">
<g id="youtube-box">
	<g>
		<polygon points="20.4,19.6 20.4,28.7 27.9,24.6 		"/>
		<path d="M40,0H8C3.6,0,0,3.6,0,8v32c0,4.4,3.6,8,8,8h32c4.4,0,8-3.6,8-8V8C48,3.6,44.4,0,40,0z M39.8,25.4c0,2.6-0.3,5.2-0.3,5.2
			s-0.3,2.2-1.3,3.2c-1.2,1.3-2.6,1.3-3.2,1.4c-4.5,0.3-11.2,0.3-11.2,0.3s-8.3-0.1-10.9-0.3c-0.7-0.1-2.3-0.1-3.5-1.4
			c-1-1-1.3-3.2-1.3-3.2S7.8,28,7.8,25.4V23c0-2.6,0.3-5.2,0.3-5.2s0.3-2.2,1.3-3.2c1.2-1.3,2.6-1.3,3.2-1.4
			c4.5-0.3,11.2-0.3,11.2-0.3h0c0,0,6.7,0,11.2,0.3c0.6,0.1,2,0.1,3.2,1.4c1,1,1.3,3.2,1.3,3.2s0.3,2.6,0.3,5.2L39.8,25.4L39.8,25.4
			z"/>
	</g>
</g>
<g id="Layer_1_1_">
</g>
</svg>
